<svg t="1717751110863" class="icon" viewBox="0 0 1271 1024" version="1.1" xmlns="http://www.w3.org/2000/svg" p-id="8241" width="200" height="200"><path d="M1020.574897 512c0-282.747586-228.457931-512-510.287449-512S0 229.252414 0 512c0 282.782897 228.457931 512 510.287448 512s510.287448-229.217103 510.287449-512z m-299.908414 89.758897c24.134621-0.300138 42.496 16.384 42.496 46.344827s-17.019586 47.386483-42.496 46.309517l-140.72938-0.741517v78.000552c-0.653241 41.666207-24.717241 62.481655-68.184275 62.481655-42.955034 0-67.725241-20.303448-69.632-62.481655v-76.517517h-141.506207c-26.394483-1.906759-43.237517-18.361379-43.237518-49.999449 0-31.638069 16.843034-41.454345 43.255173-43.396413h141.488552v-46.344828l-141.506207-0.741517c-26.394483-1.995034-43.237517-17.160828-43.237518-45.620966 0-28.477793 16.843034-41.419034 43.255173-43.361103h105.560276l-98.251035-173.585655c-19.297103-32.997517-21.98069-71.062069 6.497104-90.712276 28.495448-19.650207 64.635586-8.280276 83.685517 23.763862l111.404138 204.482207 122.438621-205.947587c16.984276-30.331586 45.956414-51.041103 83.01462-31.744 31.814621 16.560552 29.184 54.342621 11.599449 88.417104l-113.646345 185.326345h107.767172c25.388138 1.995034 42.496 11.122759 42.496 43.414069 0 32.273655-17.831724 45.038345-43.255172 47.051034l-140.005518 0.741517v44.844138h140.72938v0.017656z" fill="#FDBB3F" p-id="8242"></path><path d="M792.628966 1.588966C971.211034 101.270069 1092.201931 292.31669 1092.201931 512c0 219.68331-120.973241 410.676966-299.572965 510.411034C1059.628138 1005.991724 1271.172414 784.066207 1271.172414 512 1271.172414 239.933793 1059.539862 18.114207 792.628966 1.588966z" fill="#FCA637" p-id="8243"></path></svg>