<svg t="1718268735006" class="icon" viewBox="0 0 1024 1024" version="1.1" xmlns="http://www.w3.org/2000/svg" p-id="7059" width="200" height="200"><path d="M724.608 83.584a284.16 284.16 0 0 0-212.736 96.192 288.64 288.64 0 0 0-212.672-96.192C134.208 83.584 0 227.2 0 403.776c0 29.504 3.968 58.88 11.84 87.36h203.52c28.608-52.096 54.4-105.664 77.312-160.576 29.376-59.52 89.984-47.36 102.336 18.816l44.032 235.712 43.84-99.2c27.136-59.776 87.68-52.48 103.872 12.224l15.36 61.056 43.008-56.384 12.032-16.832h173.248a46.976 46.976 0 0 1 0 92.736h-134.144l-54.144 73.92c-34.688 48.64-91.2 35.2-106.496-25.28l-9.792-38.848-1.088-4.48-47.936 114.56c-27.968 61.632-89.28 50.816-101.888-16.384L330.88 446.08l-59.52 114.56-11.52 23.36H51.072c11.136 19.712 22.656 37.568 33.024 53.632 104.64 161.92 367.424 361.6 378.816 368.896 14.08 10.816 31.168 16.768 48.896 17.088 17.792 0 35.008-5.952 48.896-17.088 11.392-8.512 273.024-208.192 378.816-368.896a415.744 415.744 0 0 0 84.16-233.792c0-176.384-134.208-320.064-299.072-320.064" fill="#4594d5" p-id="7060"></path></svg>