<svg t="1718268862146" class="icon" viewBox="0 0 1024 1024" version="1.1" xmlns="http://www.w3.org/2000/svg" p-id="10990" width="200" height="200"><path d="M168.658824 740.894118c-12.047059 0-18.070588-12.047059-18.070589-18.070589V180.705882c0-6.023529 6.023529-18.070588 18.070589-18.070588h662.588235c6.023529 0 18.070588 6.023529 18.070588 18.070588v246.964706c30.117647 12.047059 60.235294 30.117647 84.329412 54.211765V180.705882c0-60.235294-48.188235-108.423529-108.42353-108.423529h-662.588235C108.423529 78.305882 60.235294 120.470588 60.235294 180.705882v542.117647c0 60.235294 48.188235 108.423529 108.42353 108.42353h295.152941c-12.047059-30.117647-18.070588-60.235294-24.094118-90.352941H168.658824z" fill="#f3be58" p-id="10991"></path><path d="M620.423529 451.764706l78.305883-102.4c18.070588-24.094118 12.047059-48.188235-6.02353-66.258824-18.070588-18.070588-48.188235-12.047059-66.258823 6.02353L572.235294 367.435294c-6.023529 6.023529-18.070588 12.047059-30.117647 0L481.882353 301.176471c-30.117647-36.141176-90.352941-30.117647-114.447059 12.047058L234.917647 518.023529c-12.047059 18.070588-6.023529 48.188235 12.047059 60.235295 18.070588 12.047059 48.188235 6.023529 60.235294-12.047059l108.423529-168.658824c6.023529-12.047059 18.070588-12.047059 30.117647 0l60.235295 66.258824c36.141176 24.094118 90.352941 24.094118 114.447058-12.047059zM752.941176 530.070588c-114.447059 0-210.823529 96.376471-210.823529 210.82353s96.376471 210.823529 210.823529 210.823529 210.823529-96.376471 210.82353-210.823529-96.376471-210.823529-210.82353-210.82353z m96.376471 265.035294H752.941176c-12.047059 0-18.070588-6.023529-24.094117-12.047058 0-6.023529-6.023529-12.047059-6.02353-18.070589v-144.564706c0-18.070588 12.047059-30.117647 30.117647-30.117647s30.117647 12.047059 30.117648 30.117647v120.470589h72.282352c18.070588 0 30.117647 12.047059 30.117648 30.117647s-18.070588 24.094118-36.141177 24.094117z" fill="#f3be58" p-id="10992"></path></svg>