<svg t="1717751435094" class="icon" viewBox="0 0 1692 1024" version="1.1" xmlns="http://www.w3.org/2000/svg" p-id="15002" width="300" height="300"><path d="M1572.945661 904.963245c-21.480036-64.673586-96.89364-344.614487-140.087189-387.808036a690.396366 690.396366 0 0 1 75.413604-21.480036l-10.740018-32.453532c-247.720847 64.673586-344.847965 226.240811-344.847966 226.240811v129.347172L1120.697517 797.329588a188.41727 188.41727 0 0 0-75.413603-150.827208c0-43.19355-43.19355-194.020758-53.933568-247.954325a23.347865 23.347865 0 0 0-21.480036-21.480036c-11.673932 0-53.933568 0-53.933568-21.480036L872.743192 53.933568h10.740018c21.480036-21.713514 21.480036-21.713514 21.480035-32.453532L883.48321 0H377.068019l-21.480036 21.480036v10.740018l21.480036 21.713514h10.740018c0 10.740018-53.933568 323.134451-53.933568 323.134451H129.347172v-107.633658H86.153622v107.633658H43.19355A46.69573 46.69573 0 0 0 0 420.261569v269.200883a46.69573 46.69573 0 0 0 43.19355 43.19355 179.77856 179.77856 0 0 0-10.973496 75.413604 216.434708 216.434708 0 0 0 215.500793 215.500793A219.002973 219.002973 0 0 0 463.221641 840.523138h247.720847A214.800358 214.800358 0 0 0 1120.697517 894.223227l42.960072 53.933569v10.740017h527.895226v-53.933568zM96.89364 431.001587h194.020757v32.220054H96.89364z m0 53.700089h194.020757v32.453533H96.89364z m0 53.933568h194.020757v32.453533H96.89364z m140.087189 377.068019a107.867136 107.867136 0 1 1 107.867136-107.633657 107.633657 107.633657 0 0 1-107.867136 107.633657z m549.375262-570.855298H463.221641l21.480035-183.28074h280.17438z m129.347172 570.855298a107.867136 107.867136 0 1 1 107.867136-107.633657 107.867136 107.867136 0 0 1-107.867136 107.633657z" p-id="15003" fill="#d0cd8f"></path></svg>