<svg t="1717751053163" class="icon" viewBox="0 0 1024 1024" version="1.1" xmlns="http://www.w3.org/2000/svg" p-id="5304" width="200" height="200"><path d="M354.56 617.088c-12.928 20.48-21.184 56.704-21.184 76.544 0 66.368 54.848 115.904 121.344 113.472 59.264-2.24 103.488-53.312 108.608-104.576-25.344-17.024-93.376-15.616-93.376-15.616-69.632-5.568-80.576-45.312-115.392-69.824z" fill="#BC2A2A" p-id="5305"></path><path d="M884.864 374.4c0-32.832-15.872-61.888-40.512-79.936l-12.864-8.064c-62.464-38.656-189.632-116.096-228.928-140.096a99.584 99.584 0 0 0-106.432-3.584l-8.384 5.568c-52.032 34.368-129.856 86.208-129.856 86.208V200.96a25.088 25.088 0 1 1 0-50.304h0.448v-15.872a7.872 7.872 0 0 0-1.92-5.12 55.68 55.68 0 0 0 1.728-9.216c0.128-1.6 0.256-3.136 0.256-4.8v-0.256a53.312 53.312 0 0 0-3.904-19.904l-0.896-2.112a54.464 54.464 0 0 0-18.752-22.4l-5.056-3.072a54.08 54.08 0 0 0-25.472-6.4H192.064a54.144 54.144 0 0 0-27.456 7.488l-4.608 3.072a54.08 54.08 0 0 0-17.28 21.504l-0.832 1.856a55.36 55.36 0 0 0-3.84 20.16v2.944a55.616 55.616 0 0 0 1.92 11.072 8.192 8.192 0 0 0-1.92 5.184v15.936a25.088 25.088 0 0 1 0.192 50.304v653.888a28.16 28.16 0 0 0-0.192 3.328v4.032c0 54.784 44.416 99.2 99.136 99.2h548.544a99.2 99.2 0 0 0 98.752-107.712v-0.064a160.64 160.64 0 0 0 0.384-12.672V574.528 374.528 374.4z m-279.68 316.48c0.32 107.776-76.032 165.504-162.048 165.504h-0.448c-86.08 0-164.544-63.04-162.112-164.992-5.632-99.264 159.808-269.184 163.456-272.576 3.52 3.584 167.296 172.864 161.152 272.064z m212.992-193.28a11.712 11.712 0 0 1-18.688 9.344l-1.28-0.896-341.44-207.296-1.664-0.832a11.52 11.52 0 0 1-6.72-10.56c0-3.456 1.472-6.784 4.16-9.024l1.92-1.28 1.856-0.96 1.536-1.024 63.04-41.792 6.656-4.352a51.84 51.84 0 0 1 49.536-1.152l7.296 4.48c33.472 20.48 147.264 89.728 203.328 124.48l10.048 6.272c12.928 9.984 20.416 24.96 20.416 41.216v93.376z" fill="#BC2A2A" p-id="5306"></path></svg>