<svg t="1718269577942" class="icon" viewBox="0 0 1024 1024" version="1.1" xmlns="http://www.w3.org/2000/svg" p-id="24562" width="200" height="200"><path d="M164.571429 164.571429h658.285714v327.314285h73.142857v-365.714285c0-20.114286-16.457143-36.571429-36.571429-36.571429H128c-20.114286 0-36.571429 16.457143-36.571429 36.571429v768c0 20.114286 16.457143 36.571429 36.571429 36.571428h367.542857v-73.142857H164.571429V164.571429z" p-id="24563" fill="#f3be58"></path><path d="M566.857143 475.428571H310.857143v73.142858h256v-73.142858zM676.571429 310.857143H310.857143v73.142857h365.714286v-73.142857zM457.142857 640h-146.285714v73.142857h146.285714v-73.142857zM932.571429 881.371429l-42.057143-42.057143c21.942857-31.085714 34.742857-69.485714 34.742857-109.714286 0-106.057143-85.942857-192-192-192s-192 85.942857-192 192 85.942857 192 192 192c38.4 0 74.971429-10.971429 104.228571-31.085714l43.885715 43.885714 51.2-53.028571z m-318.171429-153.6c0-65.828571 53.028571-118.857143 118.857143-118.857143s118.857143 53.028571 118.857143 118.857143-53.028571 118.857143-118.857143 118.857142-118.857143-53.028571-118.857143-118.857142z" p-id="24564" fill="#f3be58"></path></svg>